<mxfile host="app.diagrams.net" agent="Mozilla/5.0 (X11; Linux x86_64; rv:142.0) Gecko/20100101 Firefox/142.0" version="28.1.1">
  <diagram name="Page-1" id="TTty2uajeuLbPBEcXpw1">
    <mxGraphModel dx="1665" dy="1032" grid="1" gridSize="10" guides="1" tooltips="1" connect="1" arrows="1" fold="1" page="1" pageScale="1" pageWidth="850" pageHeight="1100" math="0" shadow="0">
      <root>
        <mxCell id="0" />
        <mxCell id="1" parent="0" />
        <mxCell id="NNK79b1v6qwRq7ZdVHqy-5" style="edgeStyle=orthogonalEdgeStyle;rounded=0;orthogonalLoop=1;jettySize=auto;html=1;exitX=0;exitY=0.5;exitDx=0;exitDy=0;" parent="1" source="A30zaEteu6kHjzitrpnH-1" target="NNK79b1v6qwRq7ZdVHqy-3" edge="1">
          <mxGeometry relative="1" as="geometry" />
        </mxCell>
        <mxCell id="A30zaEteu6kHjzitrpnH-3" value="Ja" style="edgeLabel;html=1;align=center;verticalAlign=middle;resizable=0;points=[];" vertex="1" connectable="0" parent="NNK79b1v6qwRq7ZdVHqy-5">
          <mxGeometry x="-0.5074" y="5" relative="1" as="geometry">
            <mxPoint x="1" as="offset" />
          </mxGeometry>
        </mxCell>
        <mxCell id="A30zaEteu6kHjzitrpnH-2" value="" style="edgeStyle=orthogonalEdgeStyle;rounded=0;orthogonalLoop=1;jettySize=auto;html=1;" edge="1" parent="1" source="NNK79b1v6qwRq7ZdVHqy-1" target="A30zaEteu6kHjzitrpnH-1">
          <mxGeometry relative="1" as="geometry" />
        </mxCell>
        <mxCell id="NNK79b1v6qwRq7ZdVHqy-1" value="Start" style="strokeWidth=2;html=1;shape=mxgraph.flowchart.start_1;whiteSpace=wrap;" parent="1" vertex="1">
          <mxGeometry x="585" y="90" width="100" height="60" as="geometry" />
        </mxCell>
        <mxCell id="NNK79b1v6qwRq7ZdVHqy-7" style="edgeStyle=orthogonalEdgeStyle;rounded=0;orthogonalLoop=1;jettySize=auto;html=1;" parent="1" source="NNK79b1v6qwRq7ZdVHqy-3" target="NNK79b1v6qwRq7ZdVHqy-4" edge="1">
          <mxGeometry relative="1" as="geometry" />
        </mxCell>
        <mxCell id="NNK79b1v6qwRq7ZdVHqy-3" value="&lt;div&gt;Pallete vom Regal aufladen&lt;/div&gt;" style="rounded=1;whiteSpace=wrap;html=1;absoluteArcSize=1;arcSize=14;strokeWidth=2;" parent="1" vertex="1">
          <mxGeometry x="160" y="250" width="100" height="100" as="geometry" />
        </mxCell>
        <mxCell id="NNK79b1v6qwRq7ZdVHqy-8" style="edgeStyle=orthogonalEdgeStyle;rounded=0;orthogonalLoop=1;jettySize=auto;html=1;entryX=0.5;entryY=0;entryDx=0;entryDy=0;" parent="1" source="NNK79b1v6qwRq7ZdVHqy-4" target="NNK79b1v6qwRq7ZdVHqy-9" edge="1">
          <mxGeometry relative="1" as="geometry">
            <mxPoint x="175" y="590" as="targetPoint" />
          </mxGeometry>
        </mxCell>
        <mxCell id="NNK79b1v6qwRq7ZdVHqy-4" value="Qr code von dem Regal scannen &amp;amp;&amp;nbsp;QR code von der Pallete scannen. Um diese vom alten Standort auszuchecken" style="rounded=1;whiteSpace=wrap;html=1;absoluteArcSize=1;arcSize=14;strokeWidth=2;" parent="1" vertex="1">
          <mxGeometry x="125" y="410" width="170" height="100" as="geometry" />
        </mxCell>
        <mxCell id="NNK79b1v6qwRq7ZdVHqy-16" style="edgeStyle=orthogonalEdgeStyle;rounded=0;orthogonalLoop=1;jettySize=auto;html=1;" parent="1" source="NNK79b1v6qwRq7ZdVHqy-9" target="NNK79b1v6qwRq7ZdVHqy-11" edge="1">
          <mxGeometry relative="1" as="geometry" />
        </mxCell>
        <mxCell id="NNK79b1v6qwRq7ZdVHqy-9" value="Pallete verschieben" style="rounded=1;whiteSpace=wrap;html=1;absoluteArcSize=1;arcSize=14;strokeWidth=2;" parent="1" vertex="1">
          <mxGeometry x="160" y="560" width="100" height="100" as="geometry" />
        </mxCell>
        <mxCell id="NNK79b1v6qwRq7ZdVHqy-11" value="QR code palette scannen &amp;amp;&amp;nbsp;QR code gestell scannen. Um diese an dem neuen Standort einzuchecken." style="rounded=1;whiteSpace=wrap;html=1;absoluteArcSize=1;arcSize=14;strokeWidth=2;" parent="1" vertex="1">
          <mxGeometry x="120" y="730" width="180" height="90" as="geometry" />
        </mxCell>
        <mxCell id="NNK79b1v6qwRq7ZdVHqy-14" style="edgeStyle=orthogonalEdgeStyle;rounded=0;orthogonalLoop=1;jettySize=auto;html=1;" parent="1" source="NNK79b1v6qwRq7ZdVHqy-11" target="NNK79b1v6qwRq7ZdVHqy-13" edge="1">
          <mxGeometry relative="1" as="geometry">
            <mxPoint x="175" y="870" as="sourcePoint" />
          </mxGeometry>
        </mxCell>
        <mxCell id="NNK79b1v6qwRq7ZdVHqy-13" value="Ende" style="strokeWidth=2;html=1;shape=mxgraph.flowchart.terminator;whiteSpace=wrap;" parent="1" vertex="1">
          <mxGeometry x="160" y="940" width="100" height="60" as="geometry" />
        </mxCell>
        <mxCell id="A30zaEteu6kHjzitrpnH-5" value="" style="edgeStyle=orthogonalEdgeStyle;rounded=0;orthogonalLoop=1;jettySize=auto;html=1;" edge="1" parent="1" source="A30zaEteu6kHjzitrpnH-1" target="A30zaEteu6kHjzitrpnH-4">
          <mxGeometry relative="1" as="geometry" />
        </mxCell>
        <mxCell id="A30zaEteu6kHjzitrpnH-8" value="nein" style="edgeLabel;html=1;align=center;verticalAlign=middle;resizable=0;points=[];" vertex="1" connectable="0" parent="A30zaEteu6kHjzitrpnH-5">
          <mxGeometry x="-0.1056" y="4" relative="1" as="geometry">
            <mxPoint y="1" as="offset" />
          </mxGeometry>
        </mxCell>
        <mxCell id="A30zaEteu6kHjzitrpnH-1" value="Muss eine Palette verschoben werden?" style="rhombus;whiteSpace=wrap;html=1;strokeWidth=2;" vertex="1" parent="1">
          <mxGeometry x="555" y="240" width="160" height="120" as="geometry" />
        </mxCell>
        <mxCell id="A30zaEteu6kHjzitrpnH-6" style="edgeStyle=orthogonalEdgeStyle;rounded=0;orthogonalLoop=1;jettySize=auto;html=1;" edge="1" parent="1" source="A30zaEteu6kHjzitrpnH-4" target="NNK79b1v6qwRq7ZdVHqy-9">
          <mxGeometry relative="1" as="geometry" />
        </mxCell>
        <mxCell id="A30zaEteu6kHjzitrpnH-9" value="ja" style="edgeLabel;html=1;align=center;verticalAlign=middle;resizable=0;points=[];" vertex="1" connectable="0" parent="A30zaEteu6kHjzitrpnH-6">
          <mxGeometry x="-0.0291" relative="1" as="geometry">
            <mxPoint as="offset" />
          </mxGeometry>
        </mxCell>
        <mxCell id="A30zaEteu6kHjzitrpnH-4" value="Muss eine neue Palette eingerÃ¤umt werden" style="rhombus;whiteSpace=wrap;html=1;strokeWidth=2;" vertex="1" parent="1">
          <mxGeometry x="520" y="525" width="230" height="170" as="geometry" />
        </mxCell>
        <mxCell id="A30zaEteu6kHjzitrpnH-7" style="edgeStyle=orthogonalEdgeStyle;rounded=0;orthogonalLoop=1;jettySize=auto;html=1;entryX=1;entryY=0.5;entryDx=0;entryDy=0;entryPerimeter=0;" edge="1" parent="1" source="A30zaEteu6kHjzitrpnH-4" target="NNK79b1v6qwRq7ZdVHqy-13">
          <mxGeometry relative="1" as="geometry">
            <Array as="points">
              <mxPoint x="635" y="970" />
            </Array>
          </mxGeometry>
        </mxCell>
        <mxCell id="A30zaEteu6kHjzitrpnH-10" value="nein" style="edgeLabel;html=1;align=center;verticalAlign=middle;resizable=0;points=[];" vertex="1" connectable="0" parent="A30zaEteu6kHjzitrpnH-7">
          <mxGeometry x="-0.4812" y="-5" relative="1" as="geometry">
            <mxPoint as="offset" />
          </mxGeometry>
        </mxCell>
      </root>
    </mxGraphModel>
  </diagram>
</mxfile>
